<svg class="icon" width="200px" height="200.00px" viewBox="0 0 1024 1024" version="1.1" xmlns="http://www.w3.org/2000/svg"><path fill="#333333" d="M701.30739 1023.217239a41.887956 41.887956 0 0 1-44.382047-44.382048V805.783576a96.438225 96.438225 0 0 0-31.080224-84.28752 35.300995 35.300995 0 0 1-8.8892-44.382048 49.689987 49.689987 0 0 1 35.492848-31.080224c128.669568-13.301824 248.449936-57.55597 248.449936-266.164384a206.434078 206.434078 0 0 0-53.271247-137.430865 42.335613 42.335613 0 0 1-8.8892-44.382048 174.970148 174.970148 0 0 0 4.412624-106.478544 326.150495 326.150495 0 0 0-115.111939 57.55597 33.510365 33.510365 0 0 1-35.492848 4.412624 530.793943 530.793943 0 0 0-288.355408 0 43.103026 43.103026 0 0 1-39.905473-4.412624 294.174956 294.174956 0 0 0-115.111939-57.55597A174.970148 174.970148 0 0 0 253.266142 198.24834c4.412624 17.714448 4.412624 35.492848-8.8892 44.382048a206.434078 206.434078 0 0 0-53.207296 137.558767c0 208.544463 119.780368 252.86256 248.449936 266.164385a37.667185 37.667185 0 0 1 35.492848 31.080223 48.474917 48.474917 0 0 1-8.8892 44.382048 106.926201 106.926201 0 0 0-31.080224 79.874896v173.051615a44.382048 44.382048 0 1 1-88.700144 0v-75.718076a221.142826 221.142826 0 0 1-230.671536-102.321723c-17.714448-22.191024-31.080224-39.905472-48.794673-44.382048a43.550684 43.550684 0 0 1 22.191024-84.28752 208.35261 208.35261 0 0 1 97.589345 75.39832 133.721703 133.721703 0 0 0 159.877693 66.573072V805.783576a232.014509 232.014509 0 0 1 13.301824-79.874896C235.743547 699.305032 102.597404 619.430136 102.597404 384.282024a278.698795 278.698795 0 0 1 62.096496-177.46424A245.188431 245.188431 0 0 1 177.803871 29.481447a39.969423 39.969423 0 0 1 26.603648-26.603649c17.714448-4.412624 75.39832-13.301824 195.178688 62.096497a652.30099 652.30099 0 0 1 292.831984 0c115.111939-75.39832 177.46424-66.573072 195.178688-62.096497a39.969423 39.969423 0 0 1 26.603648 26.603649 290.27394 290.27394 0 0 1 13.301824 173.051615 278.698795 278.698795 0 0 1 62.096497 177.46424c0 252.86256-150.860592 319.435632-257.339136 346.03928a278.570893 278.570893 0 0 1 13.301824 84.28752v168.57504a41.887956 41.887956 0 0 1-44.382048 44.382048z"  /></svg>