<svg class="icon" width="200px" height="144.84px" viewBox="0 0 1414 1024" version="1.1" xmlns="http://www.w3.org/2000/svg"><path d="M244.589714 658.919619c16.969143 20.870095 34.864762 40.96 53.638096 60.172191a241.859048 241.859048 0 0 0-118.24762 77.482666c-37.059048 44.714667-56.661333 103.765333-52.175238 154.428953H29.257143c19.797333-42.910476 98.742857-166.912 215.381333-292.08381m1142.345143 319.000381h-119.954286c-275.017143-143.555048-516.534857-244.784762-773.071238-266.873905 0.536381-35.693714 6.875429-76.117333 19.114667-121.173333l-23.649524-6.339048c-12.53181 46.32381-19.114667 88.161524-19.846095 125.659429a1205.052952 1205.052952 0 0 0-80.798476-2.681905c-23.015619 0-43.983238 2.145524-63.097905 5.851429-24.917333-24.868571-46.177524-48.713143-64.219429-71.241143 118.345143-123.221333 313.246476-234.691048 482.840381-276.675048 47.786667 158.768762 150.28419 267.556571 274.67581 340.748191 9.118476-5.217524 18.090667-10.727619 26.916571-16.432762l217.039238 233.667047 9.508572-0.828952c59.294476-5.071238 92.94019 27.062857 101.912381 37.059048 6.534095 7.314286 10.435048 13.994667 12.629333 19.260952" fill="#D1A41A" /><path d="M1281.024 196.315429c4.388571 215.625143-105.618286 387.267048-259.657143 475.282285-261.412571-130.194286-310.613333-460.214857-266.093714-637.220571 12.385524 67.681524 34.962286 110.104381 83.626667 130.925714 106.154667-30.378667 252.245333-32.768 359.862857-3.120762 44.860952-32.572952 62.22019-82.407619 71.728762-125.903238 11.849143 50.614857 10.48381 160.036571 10.532571 160.036572" fill="#FFDC76" /><path d="M928.816762 225.133714c9.020952 0 15.36 3.657143 19.943619 11.50781 10.727619 18.529524 8.97219 54.954667 0.048762 93.037714h-72.265143v15.847619h68.217905a334.165333 334.165333 0 0 1-29.208381 72.167619L911.847619 424.228571l90.453333 56.953905-50.95619 33.548191 8.777143 13.214476 56.905143-37.546667 61.44 40.131048 8.435809-13.409524-56.953905-35.254857s85.187048-55.344762 89.429334-58.026667l-0.097524-0.097524h0.097524c-18.773333-27.696762-24.722286-51.346286-16.871619-78.262857h6.339047l68.754286-0.048762 0.146286-15.798857h-69.241905c12.775619-29.988571 30.622476-57.051429 94.354286-57.051428v-15.798858c-58.806857 0-94.012952 23.356952-110.83581 72.850286h-126.927238c8.874667-39.594667 10.435048-78.506667-2.681905-100.985905a37.156571 37.156571 0 0 0-33.645714-19.407238c-52.370286 0-73.094095 53.589333-73.923048 55.832381l14.823619 5.558857c0.731429-1.950476 17.846857-45.543619 59.148191-45.543619z m88.015238 246.491429l-66.901333-42.130286 130.779428 0.048762-63.878095 42.081524z m69.534476-126.098286c-5.607619 17.944381-3.364571 44.958476 10.48381 68.169143h-161.206857a378.392381 378.392381 0 0 0 25.551238-68.169143h125.171809zM871.716571 272.725333" fill="#000000" /><path d="M1392.493714 941.933714c-26.819048-30.037333-79.433143-44.227048-123.367619-43.203047-27.989333-33.304381-176.518095-190.171429-206.555428-221.769143a566.857143 566.857143 0 0 0 157.159619-167.204572h81.968762v-17.554285h-71.582477c4.583619-8.143238 8.97219-16.384 13.165715-24.673524h58.416762v-17.603048h-49.932191c37.10781-80.164571 57.636571-172.129524 55.637333-272.822857l0.24381 0.097524c-0.146286-27.550476-8.679619-143.945143-24.478476-176.030476-42.76419 16.237714-120.539429 68.900571-138.142476 122.733714a857.136762 857.136762 0 0 0-262.826667 3.31581C868.205714 69.241905 798.281143 24.966095 745.618286 0c-22.28419 37.546667-32.134095 124.537905-29.598476 186.270476l-0.292572 0.146286c2.096762 55.783619 9.654857 106.983619 21.845333 154.038857-182.320762 45.153524-380.830476 164.62019-491.812571 280.039619-51.98019-70.168381-72.606476-127.75619-78.701714-171.349333-7.801905-55.100952 5.36381-105.618286 38.034285-146.139429C256.097524 239.616 328.655238 235.129905 403.260952 247.710476c-1.462857 11.800381 0.048762 23.064381 4.778667 29.988572 19.748571 29.159619 125.756952 39.399619 189.049905 11.166476-46.713905-65.438476-141.312-97.377524-167.497143-84.601905a44.860952 44.860952 0 0 0-19.748571 21.113905c-25.795048-4.632381-51.395048-8.045714-70.070858-7.899429-65.828571 0.487619-116.053333 23.454476-153.746285 70.217143-36.961524 45.933714-51.882667 102.985143-43.203048 164.912762 8.240762 58.660571 37.302857 121.07581 85.967238 185.782857-7.899429 8.484571-15.701333 17.066667-23.405714 25.697524C86.747429 796.769524 0 939.154286 0 962.80381v12.190476h156.525714l-2.730666-14.482286c-8.777143-46.713905 8.825905-105.130667 45.007238-148.72381 22.674286-27.452952 60.318476-58.709333 119.320381-73.142857 52.516571 51.2 119.417905 105.618286 193.877333 158.134857h116.345905v-12.190476a39.984762 39.984762 0 0 0-19.260953-34.035809c-18.383238-11.995429-46.811429-13.653333-72.801523-4.778667-24.868571-27.648-38.814476-64.609524-41.788953-110.543238 252.489143 22.381714 493.958095 124.342857 766.537143 266.727619h149.894095l1.950476-9.849905c2.82819-13.994667-4.827429-32.768-20.382476-50.176zM755.321905 33.987048c12.434286 67.632762 34.913524 110.055619 83.626666 130.876952 43.154286-12.336762 92.94019-19.992381 143.993905-22.77181l42.422857 92.891429 27.160381-93.720381c51.590095 1.657905 102.15619 8.387048 146.285715 20.528762 44.860952-32.621714 62.22019-82.407619 71.68-125.952 11.897905 50.663619 10.532571 160.036571 10.581333 160.085333a581.729524 581.729524 0 0 1-9.362286 117.516191l-48.371809 20.577524 42.617904 6.436571c-3.31581 14.189714-7.216762 28.281905-11.702857 42.130286l-41.301333 11.995428 32.914286 11.849143c-5.558857 14.726095-11.751619 29.257143-18.627048 43.495619H1159.070476v17.554286h59.099429c-4.388571 8.387048-9.118476 16.579048-13.994667 24.673524h-45.104762v17.603047h34.03581a508.440381 508.440381 0 0 1-171.788191 161.401905c-78.360381-39.009524-137.606095-95.963429-181.00419-161.401905h25.941333v-17.554285h-37.156571a540.769524 540.769524 0 0 1-14.092191-24.673524h51.248762v-17.603048H806.034286c-10.337524-20.967619-19.358476-42.471619-27.160381-64.463238l30.72-8.630857-38.716953-15.506286c-3.900952-12.580571-7.460571-25.258667-10.581333-38.034285l59.684571-4.096-68.266666-36.181334c-16.725333-92.208762-13.360762-181.686857 3.608381-249.075809zM179.98019 796.086857c-37.059048 44.714667-56.661333 103.765333-52.175238 154.428953H29.208381c19.797333-42.910476 98.742857-166.863238 215.381333-292.08381 16.091429 19.894857 33.938286 39.984762 53.638096 60.17219a241.664 241.664 0 0 0-118.24762 77.531429z m1087.000381 181.345524c-275.017143-143.506286-516.534857-244.736-773.12-266.825143 0.585143-35.693714 6.92419-76.117333 19.114667-121.173333l-23.552-6.38781c-12.580571 46.32381-19.163429 88.259048-19.894857 125.708191a1220.315429 1220.315429 0 0 0-80.798476-2.730667c-23.015619 0-43.983238 2.145524-63.097905 5.851429a869.376 869.376 0 0 1-64.219429-71.192381 878.787048 878.787048 0 0 1 111.177143-96.548572l57.295238 39.497143-18.724571-66.755048c17.554286-11.800381 35.401143-23.113143 53.540571-33.987047l84.845715 43.105524-39.838477-68.656762c11.605333-6.290286 23.30819-12.336762 35.108572-18.188191l118.491428 79.481905-38.912-115.321905c40.472381-16.335238 80.798476-29.647238 119.808-39.302095 8.874667 29.45219 19.992381 58.172952 33.353143 85.820952h-53.833143v17.65181h62.70781c4.388571 8.387048 8.97219 16.579048 13.750857 24.624762h-76.458667v17.603047h87.332572c53.589333 83.139048 125.952 146.773333 207.872 194.998858 9.118476-5.266286 18.041905-10.727619 26.867809-16.481524l21.455239 23.113143-36.08381 55.491047 61.586286-28.086857 35.59619 38.375619-60.220952 45.836191 82.895238-21.455238 111.859809 120.441904 9.508572-0.78019c59.245714-5.071238 92.94019 27.062857 101.912381 37.059047 6.534095 7.314286 10.48381 13.945905 12.629333 19.212191h-119.954286z" fill="#000000" /></svg>