<svg xmlns="http://www.w3.org/2000/svg" xmlns:xlink="http://www.w3.org/1999/xlink" width="0" height="0" style="display:none;"><symbol viewBox="0 0 512 512" id="na-icon-add">
  <path d="M368.5 240H272v-96.5c0-8.8-7.2-16-16-16s-16 7.2-16 16V240h-96.5c-8.8 0-16 7.2-16 16 0 4.4 1.8 8.4 4.7 11.3 2.9 2.9 6.9 4.7 11.3 4.7H240v96.5c0 4.4 1.8 8.4 4.7 11.3 2.9 2.9 6.9 4.7 11.3 4.7 8.8 0 16-7.2 16-16V272h96.5c8.8 0 16-7.2 16-16s-7.2-16-16-16z"></path>
</symbol><symbol viewBox="0 0 1024 1024" id="na-icon-data-chart"><defs><style type="text/css"></style></defs><path d="M593.92 457.386667m-341.333333 0a341.333333 341.333333 0 1 0 682.666666 0 341.333333 341.333333 0 1 0-682.666666 0Z" fill="#E9EAEB" p-id="28218"></path><path d="M416.426667 211.626667h27.306666v81.92h-27.306666z" fill="#BCC0C4" p-id="28219"></path><path d="M389.12 238.933333h81.92v27.306667h-81.92zM129.706667 375.466667h27.306666v81.92H129.706667z" fill="#BCC0C4" p-id="28220"></path><path d="M102.4 402.773333h81.92v27.306667H102.4zM826.026667 443.733333h27.306666v81.92h-27.306666z" fill="#BCC0C4" p-id="28221"></path><path d="M798.72 471.04h81.92v27.306667h-81.92z" fill="#BCC0C4" p-id="28222"></path><path d="M826.026667 894.293333h68.266666v27.306667h-68.266666zM921.6 894.293333h27.306667v27.306667h-27.306667zM75.093333 894.293333h27.306667v27.306667H75.093333z" fill="#2A5082" p-id="28223"></path><path d="M607.573333 552.96h150.186667v354.986667H607.573333z" fill="#FFFFFF" p-id="28224"></path><path d="M771.413333 921.6H593.92v-382.293333h177.493333v382.293333z m-150.186666-27.306667h122.88v-327.68h-122.88v327.68z" fill="#2A5082" p-id="28225"></path><path d="M197.973333 785.066667h150.186667v122.88H197.973333z" fill="#E9EAEB" p-id="28226"></path><path d="M361.813333 921.6H184.32v-150.186667h177.493333v150.186667z m-150.186666-27.306667h122.88v-95.573333h-122.88v95.573333z" fill="#2A5082" p-id="28227"></path><path d="M402.773333 703.146667h150.186667v204.8H402.773333z" fill="#E9EAEB" p-id="28228"></path><path d="M566.613333 921.6H389.12v-232.106667h177.493333v232.106667z m-150.186666-27.306667h122.88v-177.493333h-122.88v177.493333z" fill="#2A5082" p-id="28229"></path><path d="M129.706667 894.293333h669.013333v27.306667H129.706667z" fill="#2A5082" p-id="28230"></path><path d="M771.413333 225.28H614.4l39.594667 38.229333-202.069334 202.069334-106.496-106.496L124.245333 581.632l76.458667 77.824 135.168-135.168 106.496 105.130667L730.453333 341.333333l40.96 40.96z" fill="#A3D4FF" p-id="28231"></path><path d="M200.704 678.570667l-95.573333-96.938667 241.664-241.664 106.496 106.496L634.88 263.509333l-51.882667-51.882666H785.066667v203.434666l-54.613334-54.613333-288.085333 288.085333-106.496-106.496-135.168 136.533334zM143.36 581.632l57.344 58.709333 135.168-135.168 106.496 106.496L730.453333 322.218667l27.306667 27.306666v-109.226666h-109.226667l24.576 24.576-221.184 219.818666-106.496-106.496L143.36 581.632z" fill="#2A5082" p-id="28232"></path></symbol><symbol viewBox="0 0 1024 1024" id="na-icon-data-money"><defs><style type="text/css"></style></defs><path d="M769.1 338.9c-10.3-9-20.7-17.6-31.2-25.6-3.6-2.7-6.3-4.6-9.5-7 44.4-15.3 75.5-51.8 75.5-95 0-58.2-55.3-102.8-120.9-102.8-15.1 0-29 2.8-41.5 7.6-5.8 2.2-10.1 4.5-13.7 6.5-2.3 1-7.2-0.1-8.6-1.8l-0.1 0.1c-5-7.5-12.6-16.8-23.6-26.4-20.9-18.3-45.6-29.4-73.9-29.4s-53 11.2-73.9 29.3c-10.7 9.4-18.1 18.3-23.1 25.8-1.9 2.3-6.8 3.4-8.6 2.6-3.7-2.2-8.1-4.4-14.1-6.8-12.5-4.7-26.4-7.6-41.5-7.6-65.7 0-120.9 44.5-120.9 102.8 0 36.9 22.8 69 57.1 87.1-3.7 2.6-7.3 5.2-11 7.9-23.9 17.8-47.8 38.6-70.1 62.3-2.6 2.7-5 5.5-7.5 8.2 190.3-2 384.2 35.1 561.1-37.8z" fill="#FFD98D" p-id="32511"></path><path d="M769.1 338.9c-176.9 72.9-370.8 35.8-561 37.9-60.3 66.7-96.7 142.4-96.7 226 0 26.5 2.3 51.4 6.4 74.8 76.1-25.9 160.6-31.8 247.2-31.2-1-2.7-1.6-5.6-1.6-8.7 0-13.7 10.7-24.7 24.1-24.7h96.6v-24.7h-96.6c-13.3 0-24.1-11-24.1-24.7s10.7-24.7 24.1-24.7h98.8l-91.6-93.6c-9.4-9.7-9.4-25.3 0-34.9l0.6-0.6c9.4-9.1 24.5-8.8 33.6 0.6l79.5 81.3 79.5-81.3 0.6-0.6c9.4-9.1 24.5-8.8 33.6 0.6 9.4 9.7 9.4 25.3 0 34.9L530.4 539h98.7c13.3 0 24.1 11 24.1 24.7s-10.7 24.7-24.1 24.7h-96.6V613H629c13.3 0 24.1 11 24.1 24.7 0 5.9-2.1 11.2-5.4 15.5 99-2.2 190.9-16.5 264.9-65.9-4.7-76-43.3-146.8-104.4-211-12.7-13.4-25.8-25.8-39.1-37.4z" fill="#FFC166" p-id="32512"></path><path d="M629 662.4h-96.6v71.1c0 10.4-10.7 18.9-24.1 18.9-13.3 0-24.1-8.5-24.1-18.9v-71.1h-96.6c-10.3 0-19.1-6.7-22.5-16-86.6-0.6-171.2 5.3-247.2 31.2 33.6 190.5 197.4 281.7 390.5 281.7 90.9 0 179.8-18.2 251.7-60.9 97.5-58.1 153-155.7 153-295.6 0-5.2-0.2-10.4-0.5-15.6-73.9 49.4-165.8 63.8-264.9 65.9-4.5 5.6-11.1 9.3-18.7 9.3z" fill="#FFB000" p-id="32513"></path></symbol><symbol viewBox="0 0 1024 1024" id="na-icon-data-order"><defs><style type="text/css"></style></defs><path d="M95.573333 307.2h768v546.133333h-768z" fill="#EF8918" p-id="34212"></path><path d="M864.068267 799.342933v55.466667h-768.853334v-55.466667z" fill="#BC4F04" p-id="34213"></path><path d="M863.573333 307.2h-768l140.8-170.666667h486.4z" fill="#EF8918" p-id="34214"></path><path d="M570.026667 307.2H389.973333l32.426667-170.666667h114.346667zM570.026667 562.346667l-45.226667-46.933334-45.226667 46.933334-44.373333-46.933334-45.226667 46.933334V307.2h180.053334zM242.346667 600.746667l-72.533334 80.213333h35.84v89.6h72.533334V680.96h36.693333zM310.613333 403.626667h-136.533333c-9.386667 0-17.066667-7.68-17.066667-17.066667s7.68-17.066667 17.066667-17.066667h136.533333c9.386667 0 17.066667 7.68 17.066667 17.066667s-7.68 17.066667-17.066667 17.066667zM310.613333 476.16h-136.533333c-9.386667 0-17.066667-7.68-17.066667-17.066667s7.68-17.066667 17.066667-17.066666h136.533333c9.386667 0 17.066667 7.68 17.066667 17.066666s-7.68 17.066667-17.066667 17.066667zM310.613333 548.693333h-136.533333c-9.386667 0-17.066667-7.68-17.066667-17.066666s7.68-17.066667 17.066667-17.066667h136.533333c9.386667 0 17.066667 7.68 17.066667 17.066667s-7.68 17.066667-17.066667 17.066666z" fill="#FFFFFF" p-id="34215"></path><path d="M756.906667 768.853333m-230.4 0a230.4 230.4 0 1 0 460.8 0 230.4 230.4 0 1 0-460.8 0Z" fill="#EFCF48" p-id="34216"></path><path d="M757.76 825.173333l-55.466667 29.866667 10.24-62.293333-46.08-43.52 62.293334-9.386667 28.16-57.173333 28.16 56.32 62.293333 8.533333-44.373333 44.373333 11.093333 62.293334z" fill="#FFFFFF" p-id="34217"></path><path d="M205.653333 779.093333h72.533334c5.12 0 8.533333-3.413333 8.533333-8.533333v-81.92h27.306667c3.413333 0 6.826667-1.706667 7.68-5.12s0.853333-6.826667-1.706667-9.386667L247.466667 594.773333c-3.413333-3.413333-9.386667-3.413333-12.8 0L162.133333 674.133333c-2.56 2.56-2.56 5.973333-1.706666 9.386667s4.266667 5.12 7.68 5.12h27.306666v81.92c1.706667 5.12 5.12 8.533333 10.24 8.533333z m-17.066666-106.666666l52.906666-58.026667 52.906667 58.026667h-17.066667c-5.12 0-8.533333 3.413333-8.533333 8.533333v81.92H213.333333v-81.92c0-5.12-3.413333-8.533333-8.533333-8.533333h-16.213333zM479.573333 203.093333c5.12 0 8.533333-3.413333 8.533334-8.533333v-8.533333c0-5.12-3.413333-8.533333-8.533334-8.533334s-8.533333 3.413333-8.533333 8.533334v8.533333c0 4.266667 4.266667 8.533333 8.533333 8.533333zM479.573333 262.826667c5.12 0 8.533333-3.413333 8.533334-8.533334v-8.533333c0-5.12-3.413333-8.533333-8.533334-8.533333s-8.533333 3.413333-8.533333 8.533333v8.533333c0 4.266667 4.266667 8.533333 8.533333 8.533334zM479.573333 399.36c5.12 0 8.533333-3.413333 8.533334-8.533333v-8.533334c0-5.12-3.413333-8.533333-8.533334-8.533333s-8.533333 3.413333-8.533333 8.533333v8.533334c0 4.266667 4.266667 8.533333 8.533333 8.533333zM479.573333 467.626667c5.12 0 8.533333-3.413333 8.533334-8.533334v-8.533333c0-5.12-3.413333-8.533333-8.533334-8.533333s-8.533333 3.413333-8.533333 8.533333v8.533333c0 4.266667 4.266667 8.533333 8.533333 8.533334zM310.613333 360.96h-136.533333c-14.506667 0-25.6 11.093333-25.6 25.6s11.093333 25.6 25.6 25.6h136.533333c14.506667 0 25.6-11.093333 25.6-25.6s-11.946667-25.6-25.6-25.6z m0 34.133333h-136.533333c-5.12 0-8.533333-3.413333-8.533333-8.533333s3.413333-8.533333 8.533333-8.533333h136.533333c5.12 0 8.533333 3.413333 8.533334 8.533333s-4.266667 8.533333-8.533334 8.533333zM310.613333 433.493333h-136.533333c-14.506667 0-25.6 11.093333-25.6 25.6s11.093333 25.6 25.6 25.6h136.533333c14.506667 0 25.6-11.093333 25.6-25.6s-11.946667-25.6-25.6-25.6z m0 34.133334h-136.533333c-5.12 0-8.533333-3.413333-8.533333-8.533334s3.413333-8.533333 8.533333-8.533333h136.533333c5.12 0 8.533333 3.413333 8.533334 8.533333s-4.266667 8.533333-8.533334 8.533334zM336.213333 531.626667c0-14.506667-11.093333-25.6-25.6-25.6h-136.533333c-14.506667 0-25.6 11.093333-25.6 25.6s11.093333 25.6 25.6 25.6h136.533333c13.653333 0 25.6-11.946667 25.6-25.6z m-25.6 8.533333h-136.533333c-5.12 0-8.533333-3.413333-8.533333-8.533333s3.413333-8.533333 8.533333-8.533334h136.533333c5.12 0 8.533333 3.413333 8.533334 8.533334s-4.266667 8.533333-8.533334 8.533333z" p-id="34218"></path><path d="M756.906667 529.92c-131.413333 0-238.933333 107.52-238.933334 238.933333 0 26.453333 4.266667 52.053333 12.8 75.946667h-426.666666V315.733333h276.48v246.613334c0 3.413333 1.706667 6.826667 5.12 7.68 0.853333 0 1.706667 0.853333 3.413333 0.853333 2.56 0 4.266667-0.853333 5.973333-2.56l39.253334-40.96 39.253333 40.96c1.706667 1.706667 4.266667 2.56 5.973333 2.56 2.56 0 4.266667-0.853333 5.973334-2.56l38.4-40.96 38.4 40.96c2.56 2.56 5.973333 3.413333 9.386666 1.706667 3.413333-1.706667 5.12-4.266667 5.12-7.68V315.733333H853.333333v234.666667c5.973333 2.56 11.093333 5.12 17.066667 8.533333V307.2c0-0.853333 0-1.706667-0.853333-2.56 0-0.853333-0.853333-1.706667-0.853334-1.706667l-140.8-170.666666c0-3.413333-2.56-4.266667-5.12-4.266667h-486.4c-2.56 0-5.12 0.853333-6.826666 3.413333l-140.8 170.666667c-0.853333 0.853333-0.853333 1.706667-0.853334 1.706667 0 0.853333-0.853333 1.706667-0.853333 2.56v546.133333c0 5.12 3.413333 8.533333 8.533333 8.533333h441.173334c36.693333 85.333333 121.173333 145.92 220.16 145.92 131.413333 0 238.933333-107.52 238.933333-238.933333s-106.666667-238.08-238.933333-238.08z m-195.413334 11.093333l-29.866666-32.426666c-1.706667-1.706667-4.266667-2.56-5.973334-2.56-2.56 0-4.266667 0.853333-5.973333 2.56l-39.253333 40.96-39.253334-40.96c-1.706667-1.706667-4.266667-2.56-5.973333-2.56s-4.266667 0.853333-5.973333 2.56l-30.72 32.426666V315.733333h162.986666v225.28zM718.506667 145.066667l127.146666 153.6H576.853333l-29.866666-153.6h171.52z m-288.426667 0h99.84l29.866667 153.6H400.213333l29.866667-153.6z m-189.44 0h171.52l-29.866667 153.6H114.346667l126.293333-153.6z m516.266667 845.653333c-122.026667 0-221.866667-99.84-221.866667-221.866667s99.84-221.866667 221.866667-221.866666 221.866667 99.84 221.866666 221.866666-98.986667 221.866667-221.866666 221.866667z" p-id="34219"></path><path d="M906.24 682.666667c-35.84-61.44-106.666667-94.72-176.64-83.626667-4.266667 0.853333-7.68 5.12-6.826667 9.386667 0.853333 4.266667 5.12 7.68 9.386667 6.826666 63.146667-10.24 127.146667 19.626667 158.72 75.093334 31.573333 55.466667 26.453333 125.44-14.506667 174.933333-3.413333 3.413333-2.56 9.386667 0.853334 11.946667 1.706667 1.706667 3.413333 1.706667 5.12 1.706666 2.56 0 5.12-0.853333 6.826666-3.413333 46.08-52.906667 52.053333-131.413333 17.066667-192.853333zM782.506667 921.6c-63.146667 10.24-127.146667-19.626667-158.72-75.093333-31.573333-55.466667-26.453333-125.44 14.506666-174.933334 3.413333-3.413333 2.56-9.386667-0.853333-11.946666-3.413333-3.413333-9.386667-2.56-11.946667 0.853333-45.226667 54.613333-51.2 133.12-16.213333 194.56 30.72 53.76 88.746667 85.333333 149.333333 85.333333 9.386667 0 17.92-0.853333 27.306667-2.56 4.266667-0.853333 7.68-5.12 6.826667-9.386666-1.706667-4.266667-5.973333-7.68-10.24-6.826667z" p-id="34220"></path><path d="M849.066667 738.986667l-58.026667-7.68-26.453333-52.053334c-1.706667-3.413333-5.12-5.12-7.68-5.12-3.413333 0-5.973333 1.706667-7.68 5.12l-25.6 52.906667-58.026667 8.533333c-3.413333 0.853333-5.973333 2.56-6.826667 5.973334-0.853333 3.413333 0 6.826667 2.56 8.533333l42.666667 40.96-9.386667 58.026667c-0.853333 3.413333 0.853333 6.826667 3.413334 8.533333 1.706667 0.853333 3.413333 1.706667 5.12 1.706667 1.706667 0 2.56 0 4.266666-0.853334L759.466667 836.266667l52.053333 27.306666c2.56 1.706667 5.973333 0.853333 9.386667-0.853333 2.56-1.706667 4.266667-5.12 3.413333-8.533333l-10.24-58.026667 41.813333-40.96c2.56-2.56 3.413333-5.973333 1.706667-8.533333-3.413333-5.12-5.973333-6.826667-8.533333-7.68z m-52.053334 46.933333c-1.706667 1.706667-2.56 5.12-2.56 7.68l7.68 45.226667-40.96-21.333334c-2.56-0.853333-5.12-0.853333-7.68 0l-40.106666 21.333334 7.68-45.226667c0.853333-2.56-0.853333-5.973333-2.56-7.68l-33.28-31.573333 45.226666-6.826667c2.56 0 5.12-2.56 5.973334-5.12l19.626666-40.96L776.533333 742.4c0.853333 2.56 3.413333 4.266667 6.826667 4.266667l45.226667 5.973333-31.573334 33.28z" p-id="34221"></path></symbol><symbol viewBox="0 0 1024 1024" id="na-icon-data-people"><defs><style type="text/css"></style></defs><path d="M513.1 924.108c-67.559-0.255-133.128-11.141-195.839-36.985-43.188-17.8-82.522-41.512-114.347-76.339-19.333-21.157-34.181-45.049-40.793-73.177-9.384-39.917-3.409-78.241 14.646-114.673 20.218-40.8 53.035-68.741 92.632-89.845 29.631-15.792 61.429-19.552 94.2-18.927 3.622 0.069 5.5-0.817 7.072-4.291 4.806-10.593 10.081-20.975 15.239-31.407 6.783-13.718 17.264-18.044 31.686-13.043 2.192 0.76 3.381 1.29 3.549-2 0.305-5.978 1.081-11.942 1.9-17.879 0.411-2.991-0.607-4.806-2.926-6.716C385 409.9 361.765 373.288 350.4 329.3c-7.007-27.107-7.128-54.555-2.65-82.141 3.936-24.246 10.848-47.5 22.915-68.95 20.187-35.885 50.647-59 90.2-69.589 38.992-10.436 78.077-9.721 116.251 3.813 43.087 15.275 71.613 45.717 87.844 88.072 9.7 25.323 15.536 51.591 15.625 78.676 0.2 62.673-24.523 114.409-71.055 155.864-4.612 4.108-6.293 7.73-4.99 13.6 1.04 4.681 1.167 9.581 1.492 14.4 0.18 2.667 0.568 3.76 3.792 2.8 12.491-3.706 22.4 0.542 28.333 12.116 5.154 10.06 10.355 20.13 14.784 30.516 2.5 5.872 5.632 7.936 12.178 7.723 21.17-0.689 42.5-0.2 62.888 5.921 46.115 13.853 85.8 37.579 113.063 78.627a151 151 0 0 1 24.791 69.612c1.513 15.516 2.7 31.268 1.743 46.773-1.463 23.721-10.152 45.482-22.833 65.56-21.11 33.423-50.354 58.237-83.815 78.424-42.6 25.7-88.829 41.9-137.391 51.908A540.172 540.172 0 0 1 513.1 924.108z m-0.109-398.269c9.31-0.261 18.625-0.432 27.926-0.88a7.612 7.612 0 0 0 4.2-2.2c12.368-11.389 24.712-22.8 36.883-34.4a7.843 7.843 0 0 0 1.992-5.513c-0.473-7.951-1.387-15.876-2.1-23.814-0.217-2.425-0.608-3.827-3.589-2.207a140.957 140.957 0 0 1-65.32 17.534c-4.473-0.279-8.963-0.405-13.417-0.865a138.13 138.13 0 0 1-50.125-15.409c-2.707-1.415-3.58-1.141-3.858 2.008-0.716 8.106-1.842 16.177-2.462 24.288a7.2 7.2 0 0 0 1.986 5.1c11.942 11.323 24.032 22.491 36.152 33.624a6.766 6.766 0 0 0 3.844 1.835c9.29 0.418 18.59 0.624 27.887 0.899z m36.935 18.813c-14.864 0.414-29.727 1.1-44.592 1.147-9.569 0.032-19.141-0.868-28.712-1.35-1.667-0.969-3.581-1.671-4.965-2.947q-29.935-27.6-59.749-55.326c-4.629-4.288-5.463-4.147-8.193 1.417-7.39 15.063-14.626 30.2-22.22 45.163-1.471 2.9-1.344 4.81 0.173 7.553Q413.749 598.342 445.6 656.5q18.26 33.19 36.618 66.325c6.524 11.958 12.9 24 19.619 35.847 5.072 8.95 15.829 9.437 21.061 0.614 7.2-12.135 13.583-24.75 20.317-37.159 0.962-1.537 2-3.031 2.874-4.616q48.037-87.063 96.152-174.082c2.26-4.072 2.434-7.124 0.336-11.242-7.161-14.056-13.909-28.322-20.829-42.5-3.179-6.513-4.318-6.757-9.6-1.851q-28.736 26.667-57.45 53.36a47.323 47.323 0 0 1-4.773 3.457zM513 453.979c17.356 0.81 33.62-3.719 48.954-11.2 40.592-19.811 67.821-52.078 85.228-93.194a12.684 12.684 0 0 0 0.837-4.817q0.072-49.732-0.049-99.464a9.8 9.8 0 0 0-2.04-5.77q-21.162-25.618-42.7-50.92A8.143 8.143 0 0 0 597 186.2c-28.024 3.839-56.011 7.954-84.007 12q-37.993-5.912-75.972-11.84c-2.966-0.464-5.532-0.924-8.09 1.871-15.75 17.211-31.747 34.195-47.552 51.355a8.656 8.656 0 0 0-2.277 5.165q-0.859 49.737-1.363 99.479a18.413 18.413 0 0 0 1.359 7.25c14.176 33.1 35.542 60.476 65.6 80.574 20.602 13.772 43.056 22.352 68.302 21.925z m-0.058 449.9a358.1 358.1 0 0 0 65.037-3.919c21.239-3.3 42.6-6.428 63.446-11.528 37.436-9.159 73.241-22.908 106.456-42.823 31.721-19.02 59.8-41.961 79.843-73.666 10.91-17.261 18.421-35.893 20.025-56.222a192.75 192.75 0 0 0-2.745-51.623c-6.579-34.242-22.468-63.2-49.749-85.071-35.454-28.421-75.467-44.768-121.751-43.1-3.415 0.123-5.417 1.09-7.091 4.151q-26.7 48.8-53.628 97.48c-22.534 40.944-45.176 81.83-67.489 122.9-7.222 13.292-15.49 24.557-32.421 24.89-13.961 0.017-23.326-6.878-29.814-18.939-12.849-23.888-26.04-47.593-39.1-71.365-27.41-49.879-55.035-99.641-82.048-149.734-4.689-8.7-9.451-13.885-19.721-10.456a1.715 1.715 0 0 1-0.5 0.018c-23.936 0.366-46.2 6.7-67.143 18.253-24.611 13.569-46.6 30.2-63.6 52.864A161.825 161.825 0 0 0 178.7 690.03a126.4 126.4 0 0 0 11.384 65.958c11.7 25.275 29.665 45.726 50.955 63.237 38.015 31.269 81.836 51.264 128.78 64.912 26.675 7.755 53.77 13.632 81.482 15.946 20.51 1.717 41.093 2.56 61.644 3.792z" fill="#353842" p-id="30347"></path><path d="M512.945 903.875c-20.551-1.232-41.134-2.079-61.645-3.792-27.712-2.314-54.807-8.191-81.482-15.946-46.943-13.648-90.764-33.643-128.78-64.912-21.289-17.511-39.253-37.963-50.955-63.237A126.4 126.4 0 0 1 178.7 690.03a161.825 161.825 0 0 1 32.248-84.054c17-22.665 38.992-39.3 63.6-52.864 20.944-11.548 43.208-17.886 67.143-18.253a1.715 1.715 0 0 0 0.5-0.018c10.27-3.429 15.032 1.76 19.721 10.456 27.013 50.093 54.638 99.855 82.048 149.734 13.064 23.772 26.254 47.477 39.1 71.365 6.487 12.061 15.853 18.956 29.815 18.937q0.038 59.267 0.07 118.542z" fill="#707A9A" p-id="30348"></path><path d="M512.945 903.875l-0.067-118.542c16.93-0.33 25.2-11.6 32.42-24.887 22.313-41.065 44.955-81.951 67.489-122.9q26.822-48.736 53.628-97.48c1.674-3.061 3.676-4.028 7.091-4.151 46.284-1.665 86.3 14.682 121.751 43.1 27.281 21.87 43.17 50.829 49.749 85.071a192.75 192.75 0 0 1 2.745 51.623c-1.6 20.329-9.115 38.961-20.025 56.222-20.04 31.705-48.122 54.647-79.843 73.666-33.215 19.916-69.02 33.665-106.456 42.823-20.844 5.1-42.207 8.224-63.446 11.528a358.1 358.1 0 0 1-65.036 3.927z m179.9-172.1c9.152 0 18.3 0.03 27.456-0.008 10.917-0.045 14.781-6.4 9.645-15.972-9.354-17.431-18.8-34.812-28.176-52.231-2-3.714-4.495-6.612-9.158-6.563-4.444 0.046-6.817 2.837-8.732 6.39-9.541 17.708-19.175 35.366-28.667 53.1-4.657 8.7-0.716 15.191 9.177 15.268 9.481 0.07 18.966 0.012 28.451 0.012z" fill="#5A6286" p-id="30349"></path><path d="M512.988 198.206c28-4.048 55.983-8.163 84.007-12a8.143 8.143 0 0 1 6.234 2.407q21.593 25.254 42.7 50.92a9.8 9.8 0 0 1 2.04 5.77q0.182 49.731 0.049 99.464a12.684 12.684 0 0 1-0.837 4.817c-17.407 41.116-44.635 73.383-85.228 93.194-15.334 7.484-31.6 12.012-48.954 11.2q0.001-127.885-0.011-255.772z" fill="#FEDFB8" p-id="30350"></path><path d="M512.988 198.206Q513 326.093 513 453.979c-25.249 0.427-47.7-8.153-68.3-21.924-30.061-20.1-51.428-47.472-65.6-80.574a18.413 18.413 0 0 1-1.359-7.25q0.525-49.741 1.363-99.479a8.656 8.656 0 0 1 2.277-5.165c15.805-17.16 31.8-34.145 47.552-51.355 2.557-2.795 5.123-2.335 8.09-1.871Q475 192.3 512.988 198.206z" fill="#F9EAD6" p-id="30351"></path><path d="M482.22 722.828q-18.313-33.161-36.62-66.328-31.963-58.1-63.934-116.193c-1.516-2.743-1.643-4.656-0.173-7.553 7.594-14.959 14.83-30.1 22.22-45.163 2.73-5.564 3.564-5.705 8.193-1.417q29.869 27.67 59.749 55.326c1.384 1.276 3.3 1.978 4.966 2.947 0.6 2.067 1.072 4.178 1.806 6.2 5.4 14.841 10.914 29.637 16.2 44.518a17.036 17.036 0 0 1 0.721 7.224q-4.047 39.2-8.347 78.372c-1.529 14.028-3.184 28.045-4.781 42.067z" fill="#FDFDFD" p-id="30352"></path><path d="M549.925 544.653a47.323 47.323 0 0 0 4.769-3.455q28.76-26.642 57.45-53.36c5.287-4.906 6.426-4.663 9.6 1.851 6.92 14.179 13.668 28.445 20.829 42.5 2.1 4.118 1.923 7.17-0.336 11.242q-48.247 86.943-96.147 174.082c-0.874 1.585-1.912 3.08-2.875 4.616l-3.176-28.729c-2.9-26.081-5.964-52.146-8.615-78.252-0.709-6.979-1.882-14.62 0.125-21.027 5.251-16.764 12.14-33.014 18.376-49.468z" fill="#FDFDFD" p-id="30353"></path><path d="M549.925 544.653c-6.236 16.455-13.126 32.7-18.376 49.468-2.007 6.408-0.833 14.048-0.125 21.027 2.652 26.106 5.713 52.171 8.615 78.252q1.6 14.363 3.176 28.729c-6.732 12.409-13.119 25.024-20.316 37.159-5.233 8.824-15.99 8.337-21.061-0.614-6.715-11.85-13.1-23.889-19.619-35.846 1.6-14.022 3.253-28.039 4.78-42.069q4.264-39.177 8.347-78.372a17.036 17.036 0 0 0-0.721-7.224c-5.283-14.88-10.8-29.677-16.2-44.518-0.733-2.017-1.209-4.128-1.806-6.2 9.57 0.482 19.142 1.382 28.711 1.35 14.87-0.045 29.731-0.728 44.595-1.142z" fill="#F5715A" p-id="30354"></path><path d="M512.985 474.36a140.957 140.957 0 0 0 65.32-17.534c2.981-1.62 3.372-0.219 3.589 2.207 0.711 7.938 1.625 15.862 2.1 23.814a7.843 7.843 0 0 1-1.994 5.512c-12.171 11.6-24.515 23.013-36.883 34.4a7.612 7.612 0 0 1-4.2 2.2c-9.3 0.448-18.616 0.618-27.926 0.88z" fill="#FDDEB7" p-id="30355"></path><path d="M512.985 474.36l0.005 51.48c-9.3-0.275-18.6-0.481-27.887-0.9a6.766 6.766 0 0 1-3.844-1.835c-12.12-11.133-24.21-22.3-36.152-33.624a7.2 7.2 0 0 1-1.986-5.1c0.62-8.111 1.746-16.182 2.462-24.288 0.278-3.149 1.152-3.423 3.858-2.008a138.13 138.13 0 0 0 50.125 15.409c4.456 0.461 8.945 0.586 13.419 0.866z" fill="#F8E9D5" p-id="30356"></path><path d="M692.841 731.771c-9.485 0-18.97 0.058-28.455-0.016-9.893-0.077-13.835-6.567-9.177-15.268 9.492-17.734 19.126-35.391 28.667-53.1 1.914-3.553 4.288-6.344 8.732-6.39 4.663-0.049 7.159 2.849 9.158 6.563 9.376 17.419 18.822 34.8 28.176 52.231 5.137 9.572 1.273 15.926-9.645 15.972-9.151 0.037-18.304 0.008-27.456 0.008z" fill="#FCE081" p-id="30357"></path></symbol><symbol viewBox="0 0 1024 1024" id="na-icon-delete"><path fill="#333333" d="M328.777143 377.904762l31.719619 449.657905h310.662095l31.695238-449.657905h73.264762L744.106667 832.707048a73.142857 73.142857 0 0 1-72.94781 67.998476H360.496762a73.142857 73.142857 0 0 1-72.94781-68.022857L255.488 377.904762h73.289143z m159.207619 22.649905v341.333333h-73.142857v-341.333333h73.142857z m133.729524 0v341.333333h-73.142857v-341.333333h73.142857zM146.285714 256h731.428572v73.142857H146.285714v-73.142857z m518.265905-121.904762v73.142857h-292.571429v-73.142857h292.571429z"></path></symbol><symbol viewBox="0 0 1024 1024" id="na-icon-edit"><path fill="#333333" d="M904 512h-56c-4.4 0-8 3.6-8 8v320H184V184h320c4.4 0 8-3.6 8-8v-56c0-4.4-3.6-8-8-8H144c-17.7 0-32 14.3-32 32v736c0 17.7 14.3 32 32 32h736c17.7 0 32-14.3 32-32V520c0-4.4-3.6-8-8-8zM355.9 534.9L354 653.8c-0.1 8.9 7.1 16.2 16 16.2h0.4l118-2.9c2-0.1 4-0.9 5.4-2.3l415.9-415c3.1-3.1 3.1-8.2 0-11.3L785.4 114.3c-1.6-1.6-3.6-2.3-5.7-2.3s-4.1 0.8-5.7 2.3l-415.8 415c-1.4 1.5-2.3 3.5-2.3 5.6z m63.5 23.6L779.7 199l45.2 45.1-360.5 359.7-45.7 1.1 0.7-46.4z"></path></symbol><symbol viewBox="0 0 1024 1024" id="na-icon-expand"><defs><style type="text/css"></style></defs><path d="M192.037 287.953h640.124c17.673 0 32-14.327 32-32s-14.327-32-32-32H192.037c-17.673 0-32 14.327-32 32s14.327 32 32 32zM192.028 543.17h393.608c17.673 0 32-14.327 32-32s-14.327-32-32-32H192.028c-17.673 0-32 14.327-32 32s14.327 32 32 32zM832.161 735.802H192.037c-17.673 0-32 14.327-32 32s14.327 32 32 32h640.124c17.673 0 32-14.327 32-32s-14.327-32-32-32zM705.162 671.594l160-160-160-160z" fill="" p-id="2427"></path></symbol><symbol viewBox="0 0 1024 1024" id="na-icon-github"><path fill="#333333" d="M701.30739 1023.217239a41.887956 41.887956 0 0 1-44.382047-44.382048V805.783576a96.438225 96.438225 0 0 0-31.080224-84.28752 35.300995 35.300995 0 0 1-8.8892-44.382048 49.689987 49.689987 0 0 1 35.492848-31.080224c128.669568-13.301824 248.449936-57.55597 248.449936-266.164384a206.434078 206.434078 0 0 0-53.271247-137.430865 42.335613 42.335613 0 0 1-8.8892-44.382048 174.970148 174.970148 0 0 0 4.412624-106.478544 326.150495 326.150495 0 0 0-115.111939 57.55597 33.510365 33.510365 0 0 1-35.492848 4.412624 530.793943 530.793943 0 0 0-288.355408 0 43.103026 43.103026 0 0 1-39.905473-4.412624 294.174956 294.174956 0 0 0-115.111939-57.55597A174.970148 174.970148 0 0 0 253.266142 198.24834c4.412624 17.714448 4.412624 35.492848-8.8892 44.382048a206.434078 206.434078 0 0 0-53.207296 137.558767c0 208.544463 119.780368 252.86256 248.449936 266.164385a37.667185 37.667185 0 0 1 35.492848 31.080223 48.474917 48.474917 0 0 1-8.8892 44.382048 106.926201 106.926201 0 0 0-31.080224 79.874896v173.051615a44.382048 44.382048 0 1 1-88.700144 0v-75.718076a221.142826 221.142826 0 0 1-230.671536-102.321723c-17.714448-22.191024-31.080224-39.905472-48.794673-44.382048a43.550684 43.550684 0 0 1 22.191024-84.28752 208.35261 208.35261 0 0 1 97.589345 75.39832 133.721703 133.721703 0 0 0 159.877693 66.573072V805.783576a232.014509 232.014509 0 0 1 13.301824-79.874896C235.743547 699.305032 102.597404 619.430136 102.597404 384.282024a278.698795 278.698795 0 0 1 62.096496-177.46424A245.188431 245.188431 0 0 1 177.803871 29.481447a39.969423 39.969423 0 0 1 26.603648-26.603649c17.714448-4.412624 75.39832-13.301824 195.178688 62.096497a652.30099 652.30099 0 0 1 292.831984 0c115.111939-75.39832 177.46424-66.573072 195.178688-62.096497a39.969423 39.969423 0 0 1 26.603648 26.603649 290.27394 290.27394 0 0 1 13.301824 173.051615 278.698795 278.698795 0 0 1 62.096497 177.46424c0 252.86256-150.860592 319.435632-257.339136 346.03928a278.570893 278.570893 0 0 1 13.301824 84.28752v168.57504a41.887956 41.887956 0 0 1-44.382048 44.382048z"></path></symbol><symbol viewBox="0 0 1024 1024" id="na-icon-menu"><path d="M128 298.666667h768a42.666667 42.666667 0 0 0 0-85.333334H128a42.666667 42.666667 0 0 0 0 85.333334z m768 170.666666H128a42.666667 42.666667 0 0 0 0 85.333334h768a42.666667 42.666667 0 0 0 0-85.333334z m0 256H128a42.666667 42.666667 0 0 0 0 85.333334h768a42.666667 42.666667 0 0 0 0-85.333334z" p-id="4018"></path></symbol><symbol viewBox="0 0 1024 1024" id="na-icon-server-host"><path fill="#333333" d="M752 960H272c-8.8 0-16-7.2-16-16V96c0-17.7 14.3-32 32-32h448c17.7 0 32 14.3 32 32v848c0 8.8-7.2 16-16 16zM256 0c-35.3 0-64 28.7-64 64v928c0 17.7 14.3 32 32 32h576c17.7 0 32-14.3 32-32V64c0-35.3-28.7-64-64-64H256zM688 192H336.2c-8.8 0-16-7.2-16-16v-32c0-8.8 7.2-16 16-16H688c8.8 0 16 7.2 16 16v32c0 8.8-7.2 16-16 16zM687.6 320H335.8c-8.8 0-16-7.2-16-16v-32c0-8.8 7.2-16 16-16h351.8c8.8 0 16 7.2 16 16v32c0 8.8-7.2 16-16 16zM639.6 452v56c0 2.2-1.8 4-4 4H387.8c-2.2 0-4-1.8-4-4v-56c0-2.2 1.8-4 4-4h247.8c2.2 0 4 1.8 4 4z m-303.8-68c-8.8 0-16 7.2-16 16v160c0 8.8 7.2 16 16 16h351.8c8.8 0 16-7.2 16-16V400c0-8.8-7.2-16-16-16H335.8zM513.1 845.2H511c-25.7 0-46.6-20.9-46.6-46.6 0-25.7 20.9-46.6 46.6-46.6h2.1c25.7 0 46.6 20.9 46.6 46.6-0.1 25.7-20.9 46.6-46.6 46.6zM512.7 704h-1.4c-17.7 0-32-14.3-32-32s14.3-32 32-32h1.4c17.7 0 32 14.3 32 32s-14.3 32-32 32z"></path></symbol><symbol viewBox="0 0 1414 1024" id="na-icon-tomcat"><path d="M244.589714 658.919619c16.969143 20.870095 34.864762 40.96 53.638096 60.172191a241.859048 241.859048 0 0 0-118.24762 77.482666c-37.059048 44.714667-56.661333 103.765333-52.175238 154.428953H29.257143c19.797333-42.910476 98.742857-166.912 215.381333-292.08381m1142.345143 319.000381h-119.954286c-275.017143-143.555048-516.534857-244.784762-773.071238-266.873905 0.536381-35.693714 6.875429-76.117333 19.114667-121.173333l-23.649524-6.339048c-12.53181 46.32381-19.114667 88.161524-19.846095 125.659429a1205.052952 1205.052952 0 0 0-80.798476-2.681905c-23.015619 0-43.983238 2.145524-63.097905 5.851429-24.917333-24.868571-46.177524-48.713143-64.219429-71.241143 118.345143-123.221333 313.246476-234.691048 482.840381-276.675048 47.786667 158.768762 150.28419 267.556571 274.67581 340.748191 9.118476-5.217524 18.090667-10.727619 26.916571-16.432762l217.039238 233.667047 9.508572-0.828952c59.294476-5.071238 92.94019 27.062857 101.912381 37.059048 6.534095 7.314286 10.435048 13.994667 12.629333 19.260952" fill="#D1A41A"></path><path d="M1281.024 196.315429c4.388571 215.625143-105.618286 387.267048-259.657143 475.282285-261.412571-130.194286-310.613333-460.214857-266.093714-637.220571 12.385524 67.681524 34.962286 110.104381 83.626667 130.925714 106.154667-30.378667 252.245333-32.768 359.862857-3.120762 44.860952-32.572952 62.22019-82.407619 71.728762-125.903238 11.849143 50.614857 10.48381 160.036571 10.532571 160.036572" fill="#FFDC76"></path><path d="M928.816762 225.133714c9.020952 0 15.36 3.657143 19.943619 11.50781 10.727619 18.529524 8.97219 54.954667 0.048762 93.037714h-72.265143v15.847619h68.217905a334.165333 334.165333 0 0 1-29.208381 72.167619L911.847619 424.228571l90.453333 56.953905-50.95619 33.548191 8.777143 13.214476 56.905143-37.546667 61.44 40.131048 8.435809-13.409524-56.953905-35.254857s85.187048-55.344762 89.429334-58.026667l-0.097524-0.097524h0.097524c-18.773333-27.696762-24.722286-51.346286-16.871619-78.262857h6.339047l68.754286-0.048762 0.146286-15.798857h-69.241905c12.775619-29.988571 30.622476-57.051429 94.354286-57.051428v-15.798858c-58.806857 0-94.012952 23.356952-110.83581 72.850286h-126.927238c8.874667-39.594667 10.435048-78.506667-2.681905-100.985905a37.156571 37.156571 0 0 0-33.645714-19.407238c-52.370286 0-73.094095 53.589333-73.923048 55.832381l14.823619 5.558857c0.731429-1.950476 17.846857-45.543619 59.148191-45.543619z m88.015238 246.491429l-66.901333-42.130286 130.779428 0.048762-63.878095 42.081524z m69.534476-126.098286c-5.607619 17.944381-3.364571 44.958476 10.48381 68.169143h-161.206857a378.392381 378.392381 0 0 0 25.551238-68.169143h125.171809zM871.716571 272.725333" fill="#000000"></path><path d="M1392.493714 941.933714c-26.819048-30.037333-79.433143-44.227048-123.367619-43.203047-27.989333-33.304381-176.518095-190.171429-206.555428-221.769143a566.857143 566.857143 0 0 0 157.159619-167.204572h81.968762v-17.554285h-71.582477c4.583619-8.143238 8.97219-16.384 13.165715-24.673524h58.416762v-17.603048h-49.932191c37.10781-80.164571 57.636571-172.129524 55.637333-272.822857l0.24381 0.097524c-0.146286-27.550476-8.679619-143.945143-24.478476-176.030476-42.76419 16.237714-120.539429 68.900571-138.142476 122.733714a857.136762 857.136762 0 0 0-262.826667 3.31581C868.205714 69.241905 798.281143 24.966095 745.618286 0c-22.28419 37.546667-32.134095 124.537905-29.598476 186.270476l-0.292572 0.146286c2.096762 55.783619 9.654857 106.983619 21.845333 154.038857-182.320762 45.153524-380.830476 164.62019-491.812571 280.039619-51.98019-70.168381-72.606476-127.75619-78.701714-171.349333-7.801905-55.100952 5.36381-105.618286 38.034285-146.139429C256.097524 239.616 328.655238 235.129905 403.260952 247.710476c-1.462857 11.800381 0.048762 23.064381 4.778667 29.988572 19.748571 29.159619 125.756952 39.399619 189.049905 11.166476-46.713905-65.438476-141.312-97.377524-167.497143-84.601905a44.860952 44.860952 0 0 0-19.748571 21.113905c-25.795048-4.632381-51.395048-8.045714-70.070858-7.899429-65.828571 0.487619-116.053333 23.454476-153.746285 70.217143-36.961524 45.933714-51.882667 102.985143-43.203048 164.912762 8.240762 58.660571 37.302857 121.07581 85.967238 185.782857-7.899429 8.484571-15.701333 17.066667-23.405714 25.697524C86.747429 796.769524 0 939.154286 0 962.80381v12.190476h156.525714l-2.730666-14.482286c-8.777143-46.713905 8.825905-105.130667 45.007238-148.72381 22.674286-27.452952 60.318476-58.709333 119.320381-73.142857 52.516571 51.2 119.417905 105.618286 193.877333 158.134857h116.345905v-12.190476a39.984762 39.984762 0 0 0-19.260953-34.035809c-18.383238-11.995429-46.811429-13.653333-72.801523-4.778667-24.868571-27.648-38.814476-64.609524-41.788953-110.543238 252.489143 22.381714 493.958095 124.342857 766.537143 266.727619h149.894095l1.950476-9.849905c2.82819-13.994667-4.827429-32.768-20.382476-50.176zM755.321905 33.987048c12.434286 67.632762 34.913524 110.055619 83.626666 130.876952 43.154286-12.336762 92.94019-19.992381 143.993905-22.77181l42.422857 92.891429 27.160381-93.720381c51.590095 1.657905 102.15619 8.387048 146.285715 20.528762 44.860952-32.621714 62.22019-82.407619 71.68-125.952 11.897905 50.663619 10.532571 160.036571 10.581333 160.085333a581.729524 581.729524 0 0 1-9.362286 117.516191l-48.371809 20.577524 42.617904 6.436571c-3.31581 14.189714-7.216762 28.281905-11.702857 42.130286l-41.301333 11.995428 32.914286 11.849143c-5.558857 14.726095-11.751619 29.257143-18.627048 43.495619H1159.070476v17.554286h59.099429c-4.388571 8.387048-9.118476 16.579048-13.994667 24.673524h-45.104762v17.603047h34.03581a508.440381 508.440381 0 0 1-171.788191 161.401905c-78.360381-39.009524-137.606095-95.963429-181.00419-161.401905h25.941333v-17.554285h-37.156571a540.769524 540.769524 0 0 1-14.092191-24.673524h51.248762v-17.603048H806.034286c-10.337524-20.967619-19.358476-42.471619-27.160381-64.463238l30.72-8.630857-38.716953-15.506286c-3.900952-12.580571-7.460571-25.258667-10.581333-38.034285l59.684571-4.096-68.266666-36.181334c-16.725333-92.208762-13.360762-181.686857 3.608381-249.075809zM179.98019 796.086857c-37.059048 44.714667-56.661333 103.765333-52.175238 154.428953H29.208381c19.797333-42.910476 98.742857-166.863238 215.381333-292.08381 16.091429 19.894857 33.938286 39.984762 53.638096 60.17219a241.664 241.664 0 0 0-118.24762 77.531429z m1087.000381 181.345524c-275.017143-143.506286-516.534857-244.736-773.12-266.825143 0.585143-35.693714 6.92419-76.117333 19.114667-121.173333l-23.552-6.38781c-12.580571 46.32381-19.163429 88.259048-19.894857 125.708191a1220.315429 1220.315429 0 0 0-80.798476-2.730667c-23.015619 0-43.983238 2.145524-63.097905 5.851429a869.376 869.376 0 0 1-64.219429-71.192381 878.787048 878.787048 0 0 1 111.177143-96.548572l57.295238 39.497143-18.724571-66.755048c17.554286-11.800381 35.401143-23.113143 53.540571-33.987047l84.845715 43.105524-39.838477-68.656762c11.605333-6.290286 23.30819-12.336762 35.108572-18.188191l118.491428 79.481905-38.912-115.321905c40.472381-16.335238 80.798476-29.647238 119.808-39.302095 8.874667 29.45219 19.992381 58.172952 33.353143 85.820952h-53.833143v17.65181h62.70781c4.388571 8.387048 8.97219 16.579048 13.750857 24.624762h-76.458667v17.603047h87.332572c53.589333 83.139048 125.952 146.773333 207.872 194.998858 9.118476-5.266286 18.041905-10.727619 26.867809-16.481524l21.455239 23.113143-36.08381 55.491047 61.586286-28.086857 35.59619 38.375619-60.220952 45.836191 82.895238-21.455238 111.859809 120.441904 9.508572-0.78019c59.245714-5.071238 92.94019 27.062857 101.912381 37.059047 6.534095 7.314286 10.48381 13.945905 12.629333 19.212191h-119.954286z" fill="#000000"></path></symbol></svg>